name C:\Users\u0101727\Documents\MyRepositories\upper-imu-dc\OpenSim\subject0\MA\ResultsMA\grid_4nodes_9dim\angles_7.mot
datacolumns 10
datarows 52
range 775.01000000 775.52000000
endheader 
time	clav_prot	clav_elev	scapula_abduction	scapula_elevation	scapula_upward_rot	scapula_winging	plane_elv	shoulder_elv	axial_rot	
        775.01000000	        -50.00000000	         20.00000000	         15.00000000	          3.33333333	         60.00000000	         10.00000000	         30.00000000	        -10.00000000	        -30.00000000	
        775.02000000	        -38.33333333	         20.00000000	         15.00000000	          3.33333333	         60.00000000	         10.00000000	         30.00000000	        -10.00000000	        -30.00000000	
        775.03000000	        -26.66666667	         20.00000000	         15.00000000	          3.33333333	         60.00000000	         10.00000000	         30.00000000	        -10.00000000	        -30.00000000	
        775.04000000	        -15.00000000	         20.00000000	         15.00000000	          3.33333333	         60.00000000	         10.00000000	         30.00000000	        -10.00000000	        -30.00000000	
        775.05000000	        -50.00000000	        -10.00000000	        -40.00000000	         10.00000000	         60.00000000	         10.00000000	         30.00000000	        -10.00000000	        -30.00000000	
        775.06000000	        -38.33333333	        -10.00000000	        -40.00000000	         10.00000000	         60.00000000	         10.00000000	         30.00000000	        -10.00000000	        -30.00000000	
        775.07000000	        -26.66666667	        -10.00000000	        -40.00000000	         10.00000000	         60.00000000	         10.00000000	         30.00000000	        -10.00000000	        -30.00000000	
        775.08000000	        -15.00000000	        -10.00000000	        -40.00000000	         10.00000000	         60.00000000	         10.00000000	         30.00000000	        -10.00000000	        -30.00000000	
        775.09000000	        -50.00000000	          0.00000000	        -40.00000000	         10.00000000	         60.00000000	         10.00000000	         30.00000000	        -10.00000000	        -30.00000000	
        775.10000000	        -38.33333333	          0.00000000	        -40.00000000	         10.00000000	         60.00000000	         10.00000000	         30.00000000	        -10.00000000	        -30.00000000	
        775.11000000	        -26.66666667	          0.00000000	        -40.00000000	         10.00000000	         60.00000000	         10.00000000	         30.00000000	        -10.00000000	        -30.00000000	
        775.12000000	        -15.00000000	          0.00000000	        -40.00000000	         10.00000000	         60.00000000	         10.00000000	         30.00000000	        -10.00000000	        -30.00000000	
        775.13000000	        -50.00000000	         10.00000000	        -40.00000000	         10.00000000	         60.00000000	         10.00000000	         30.00000000	        -10.00000000	        -30.00000000	
        775.14000000	        -38.33333333	         10.00000000	        -40.00000000	         10.00000000	         60.00000000	         10.00000000	         30.00000000	        -10.00000000	        -30.00000000	
        775.15000000	        -26.66666667	         10.00000000	        -40.00000000	         10.00000000	         60.00000000	         10.00000000	         30.00000000	        -10.00000000	        -30.00000000	
        775.16000000	        -15.00000000	         10.00000000	        -40.00000000	         10.00000000	         60.00000000	         10.00000000	         30.00000000	        -10.00000000	        -30.00000000	
        775.17000000	        -50.00000000	         20.00000000	        -40.00000000	         10.00000000	         60.00000000	         10.00000000	         30.00000000	        -10.00000000	        -30.00000000	
        775.18000000	        -38.33333333	         20.00000000	        -40.00000000	         10.00000000	         60.00000000	         10.00000000	         30.00000000	        -10.00000000	        -30.00000000	
        775.19000000	        -26.66666667	         20.00000000	        -40.00000000	         10.00000000	         60.00000000	         10.00000000	         30.00000000	        -10.00000000	        -30.00000000	
        775.20000000	        -15.00000000	         20.00000000	        -40.00000000	         10.00000000	         60.00000000	         10.00000000	         30.00000000	        -10.00000000	        -30.00000000	
        775.21000000	        -50.00000000	        -10.00000000	        -21.66666667	         10.00000000	         60.00000000	         10.00000000	         30.00000000	        -10.00000000	        -30.00000000	
        775.22000000	        -38.33333333	        -10.00000000	        -21.66666667	         10.00000000	         60.00000000	         10.00000000	         30.00000000	        -10.00000000	        -30.00000000	
        775.23000000	        -26.66666667	        -10.00000000	        -21.66666667	         10.00000000	         60.00000000	         10.00000000	         30.00000000	        -10.00000000	        -30.00000000	
        775.24000000	        -15.00000000	        -10.00000000	        -21.66666667	         10.00000000	         60.00000000	         10.00000000	         30.00000000	        -10.00000000	        -30.00000000	
        775.25000000	        -50.00000000	          0.00000000	        -21.66666667	         10.00000000	         60.00000000	         10.00000000	         30.00000000	        -10.00000000	        -30.00000000	
        775.26000000	        -38.33333333	          0.00000000	        -21.66666667	         10.00000000	         60.00000000	         10.00000000	         30.00000000	        -10.00000000	        -30.00000000	
        775.27000000	        -26.66666667	          0.00000000	        -21.66666667	         10.00000000	         60.00000000	         10.00000000	         30.00000000	        -10.00000000	        -30.00000000	
        775.28000000	        -15.00000000	          0.00000000	        -21.66666667	         10.00000000	         60.00000000	         10.00000000	         30.00000000	        -10.00000000	        -30.00000000	
        775.29000000	        -50.00000000	         10.00000000	        -21.66666667	         10.00000000	         60.00000000	         10.00000000	         30.00000000	        -10.00000000	        -30.00000000	
        775.30000000	        -38.33333333	         10.00000000	        -21.66666667	         10.00000000	         60.00000000	         10.00000000	         30.00000000	        -10.00000000	        -30.00000000	
        775.31000000	        -26.66666667	         10.00000000	        -21.66666667	         10.00000000	         60.00000000	         10.00000000	         30.00000000	        -10.00000000	        -30.00000000	
        775.32000000	        -15.00000000	         10.00000000	        -21.66666667	         10.00000000	         60.00000000	         10.00000000	         30.00000000	        -10.00000000	        -30.00000000	
        775.33000000	        -50.00000000	         20.00000000	        -21.66666667	         10.00000000	         60.00000000	         10.00000000	         30.00000000	        -10.00000000	        -30.00000000	
        775.34000000	        -38.33333333	         20.00000000	        -21.66666667	         10.00000000	         60.00000000	         10.00000000	         30.00000000	        -10.00000000	        -30.00000000	
        775.35000000	        -26.66666667	         20.00000000	        -21.66666667	         10.00000000	         60.00000000	         10.00000000	         30.00000000	        -10.00000000	        -30.00000000	
        775.36000000	        -15.00000000	         20.00000000	        -21.66666667	         10.00000000	         60.00000000	         10.00000000	         30.00000000	        -10.00000000	        -30.00000000	
        775.37000000	        -50.00000000	        -10.00000000	         -3.33333333	         10.00000000	         60.00000000	         10.00000000	         30.00000000	        -10.00000000	        -30.00000000	
        775.38000000	        -38.33333333	        -10.00000000	         -3.33333333	         10.00000000	         60.00000000	         10.00000000	         30.00000000	        -10.00000000	        -30.00000000	
        775.39000000	        -26.66666667	        -10.00000000	         -3.33333333	         10.00000000	         60.00000000	         10.00000000	         30.00000000	        -10.00000000	        -30.00000000	
        775.40000000	        -15.00000000	        -10.00000000	         -3.33333333	         10.00000000	         60.00000000	         10.00000000	         30.00000000	        -10.00000000	        -30.00000000	
        775.41000000	        -50.00000000	          0.00000000	         -3.33333333	         10.00000000	         60.00000000	         10.00000000	         30.00000000	        -10.00000000	        -30.00000000	
        775.42000000	        -38.33333333	          0.00000000	         -3.33333333	         10.00000000	         60.00000000	         10.00000000	         30.00000000	        -10.00000000	        -30.00000000	
        775.43000000	        -26.66666667	          0.00000000	         -3.33333333	         10.00000000	         60.00000000	         10.00000000	         30.00000000	        -10.00000000	        -30.00000000	
        775.44000000	        -15.00000000	          0.00000000	         -3.33333333	         10.00000000	         60.00000000	         10.00000000	         30.00000000	        -10.00000000	        -30.00000000	
        775.45000000	        -50.00000000	         10.00000000	         -3.33333333	         10.00000000	         60.00000000	         10.00000000	         30.00000000	        -10.00000000	        -30.00000000	
        775.46000000	        -38.33333333	         10.00000000	         -3.33333333	         10.00000000	         60.00000000	         10.00000000	         30.00000000	        -10.00000000	        -30.00000000	
        775.47000000	        -26.66666667	         10.00000000	         -3.33333333	         10.00000000	         60.00000000	         10.00000000	         30.00000000	        -10.00000000	        -30.00000000	
        775.48000000	        -15.00000000	         10.00000000	         -3.33333333	         10.00000000	         60.00000000	         10.00000000	         30.00000000	        -10.00000000	        -30.00000000	
        775.49000000	        -50.00000000	         20.00000000	         -3.33333333	         10.00000000	         60.00000000	         10.00000000	         30.00000000	        -10.00000000	        -30.00000000	
        775.50000000	        -38.33333333	         20.00000000	         -3.33333333	         10.00000000	         60.00000000	         10.00000000	         30.00000000	        -10.00000000	        -30.00000000	
        775.51000000	        -26.66666667	         20.00000000	         -3.33333333	         10.00000000	         60.00000000	         10.00000000	         30.00000000	        -10.00000000	        -30.00000000	
        775.52000000	        -15.00000000	         20.00000000	         -3.33333333	         10.00000000	         60.00000000	         10.00000000	         30.00000000	        -10.00000000	        -30.00000000	
